<svg xmlns="http://www.w3.org/2000/svg" style="display: none">
	<symbol id="icon-record" viewBox="0 0 20 20" fill="none" stroke="currentColor" stroke-width="1.5" stroke-linecap="round" stroke-linejoin="round">
		<circle cx="10" cy="10" r="6" />
	</symbol>
	<symbol id="icon-stop" viewBox="0 0 20 20" fill="none" stroke="currentColor" stroke-width="1.5" stroke-linecap="round" stroke-linejoin="round">
		<rect x="5" y="5" width="10" height="10" rx="2" />
	</symbol>
	<symbol id="icon-pause" viewBox="0 0 20 20" fill="none" stroke="currentColor" stroke-width="1.5" stroke-linecap="round" stroke-linejoin="round">
		<path d="M7.5 5v10M12.5 5v10" />
	</symbol>
	<symbol id="icon-settings" viewBox="0 0 20 20" fill="none" stroke="currentColor" stroke-width="1.5" stroke-linecap="round" stroke-linejoin="round">
		<circle cx="10" cy="10" r="3" />
		<path d="M10 7v-2.5M10 13v2.5M13 10h2.5M7 10h-2.5" />
	</symbol>
	<symbol id="icon-microphone" viewBox="0 0 20 20" fill="none" stroke="currentColor" stroke-width="1.5" stroke-linecap="round" stroke-linejoin="round">
		<rect x="7.5" y="3" width="5" height="8" rx="2.5" />
		<path d="M5.5 10v.5a4.5 4.5 0 0 0 9 0V10M10 15v2" />
	</symbol>
	<symbol id="icon-camera" viewBox="0 0 20 20" fill="none" stroke="currentColor" stroke-width="1.5" stroke-linecap="round" stroke-linejoin="round">
		<path d="M3 7.5a1 1 0 0 1 1-1h1.5l1-1.5h5l1 1.5H15a1 1 0 0 1 1 1v7a1 1 0 0 1-1 1H4a1 1 0 0 1-1-1z" />
		<circle cx="9.5" cy="10.5" r="2.5" />
	</symbol>
	<symbol id="icon-close" viewBox="0 0 20 20" fill="none" stroke="currentColor" stroke-width="1.5" stroke-linecap="round" stroke-linejoin="round">
		<path d="M5 5l10 10M15 5 5 15" />
	</symbol>
	<symbol id="icon-minimize" viewBox="0 0 20 20" fill="none" stroke="currentColor" stroke-width="1.5" stroke-linecap="round" stroke-linejoin="round">
		<path d="M5 10h10" />
	</symbol>
	<symbol id="icon-check" viewBox="0 0 20 20" fill="none" stroke="currentColor" stroke-width="1.5" stroke-linecap="round" stroke-linejoin="round">
		<path d="M4.5 10.5l3.5 3.5 7.5-8" />
	</symbol>
	<symbol id="icon-folder" viewBox="0 0 20 20" fill="none" stroke="currentColor" stroke-width="1.5" stroke-linecap="round" stroke-linejoin="round">
		<path d="M3 6a1 1 0 0 1 1-1h3.5l1.5 2H16a1 1 0 0 1 1 1v6a1 1 0 0 1-1 1H4a1 1 0 0 1-1-1z" />
	</symbol>
	<symbol id="icon-chevron-right" viewBox="0 0 20 20" fill="none" stroke="currentColor" stroke-width="1.5" stroke-linecap="round" stroke-linejoin="round">
		<path d="M7.5 4.5l6 5.5-6 5.5" />
	</symbol>
	<symbol id="icon-drag-handle" viewBox="0 0 20 20" fill="none" stroke="currentColor" stroke-width="1.5" stroke-linecap="round" stroke-linejoin="round">
		<circle cx="8" cy="6" r=".75" />
		<circle cx="8" cy="10" r=".75" />
		<circle cx="8" cy="14" r=".75" />
		<circle cx="12" cy="6" r=".75" />
		<circle cx="12" cy="10" r=".75" />
		<circle cx="12" cy="14" r=".75" />
	</symbol>
	<symbol id="icon-monitor" viewBox="0 0 20 20" fill="none" stroke="currentColor" stroke-width="1.5" stroke-linecap="round" stroke-linejoin="round">
		<rect x="3" y="4.5" width="14" height="9" rx="1.5" />
		<path d="M7.5 16.5h5M10 13.5v3" />
	</symbol>
	<symbol id="icon-volume-on" viewBox="0 0 20 20" fill="none" stroke="currentColor" stroke-width="1.5" stroke-linecap="round" stroke-linejoin="round">
		<path d="M4 8h2.5L10 5v10l-3.5-3H4z" />
		<path d="M13 7.5a4 4 0 0 1 0 5" />
	</symbol>
	<symbol id="icon-volume-off" viewBox="0 0 20 20" fill="none" stroke="currentColor" stroke-width="1.5" stroke-linecap="round" stroke-linejoin="round">
		<path d="M4 8h2.5L10 5v10l-3.5-3H4z" />
		<path d="M12.5 8l3 4M15.5 8l-3 4" />
	</symbol>
	<symbol id="icon-microphone-off" viewBox="0 0 20 20" fill="none" stroke="currentColor" stroke-width="1.5" stroke-linecap="round" stroke-linejoin="round">
		<rect x="7.5" y="3" width="5" height="8" rx="2.5" />
		<path d="M5.5 10v.5a4.5 4.5 0 0 0 9 0V10M10 15v2" />
		<path d="M4 4l12 12" />
	</symbol>
	<symbol id="icon-camera-off" viewBox="0 0 20 20" fill="none" stroke="currentColor" stroke-width="1.5" stroke-linecap="round" stroke-linejoin="round">
		<path d="M3 7.5a1 1 0 0 1 1-1h1.5l1-1.5h5l1 1.5H15a1 1 0 0 1 1 1v7a1 1 0 0 1-1 1H4a1 1 0 0 1-1-1z" />
		<circle cx="9.5" cy="10.5" r="2.5" />
		<path d="M3.5 3.5l13 13" />
	</symbol>
	<symbol id="icon-cursor" viewBox="0 0 20 20" fill="none" stroke="currentColor" stroke-width="1.5" stroke-linecap="round" stroke-linejoin="round">
		<path d="M5 4l9 9-3.5.5L9 17z" />
	</symbol>
	<symbol id="icon-resume" viewBox="0 0 20 20" fill="none" stroke="currentColor" stroke-width="1.5" stroke-linecap="round" stroke-linejoin="round">
		<path d="M7 5l7 5-7 5z" />
	</symbol>
	<symbol id="icon-restart" viewBox="0 0 20 20" fill="none" stroke="currentColor" stroke-width="1.5" stroke-linecap="round" stroke-linejoin="round">
		<path d="M14.5 6a5.5 5.5 0 1 1-1.8-2.4" />
		<path d="M14.5 2.8v3.5H11" />
	</symbol>
	<symbol id="icon-cancel" viewBox="0 0 20 20" fill="none" stroke="currentColor" stroke-width="1.5" stroke-linecap="round" stroke-linejoin="round">
		<circle cx="10" cy="10" r="6.5" />
		<path d="M7.8 7.8l4.4 4.4M12.2 7.8l-4.4 4.4" />
	</symbol>
	<symbol id="icon-chevron-down" viewBox="0 0 20 20" fill="none" stroke="currentColor" stroke-width="1.5" stroke-linecap="round" stroke-linejoin="round">
		<path d="M4.5 7.5l5.5 6 5.5-6" />
	</symbol>
	<symbol id="icon-tray-columns" viewBox="0 0 20 20" fill="none" stroke="currentColor" stroke-width="1.5" stroke-linecap="round" stroke-linejoin="round">
		<path d="M7 4v12M13 4v12" />
	</symbol>
	<symbol id="icon-tray-rows" viewBox="0 0 20 20" fill="none" stroke="currentColor" stroke-width="1.5" stroke-linecap="round" stroke-linejoin="round">
		<path d="M4 7h12M4 13h12" />
	</symbol>
	<symbol id="icon-language" viewBox="0 0 20 20" fill="none" stroke="currentColor" stroke-width="1.5" stroke-linecap="round" stroke-linejoin="round">
		<circle cx="10" cy="10" r="6.5" />
		<path d="M3.5 10h13" />
		<path d="M10 3.5a9 9 0 0 1 0 13" />
		<path d="M10 3.5a9 9 0 0 0 0 13" />
	</symbol>
	<symbol id="icon-notes" viewBox="0 0 20 20" fill="none" stroke="currentColor" stroke-width="1.5" stroke-linecap="round" stroke-linejoin="round">
		<path d="M6 3.5h6l2.5 2.5V16a1 1 0 0 1-1 1H6a1 1 0 0 1-1-1V4.5a1 1 0 0 1 1-1z" />
		<path d="M12 3.5V6h2.5" />
		<path d="M7 10.5h6M7 13h4" />
	</symbol>
	<symbol id="icon-studio" viewBox="0 0 20 20" fill="none" stroke="currentColor" stroke-width="1.5" stroke-linecap="round" stroke-linejoin="round">
		<path d="M3 6V3h3" />
		<path d="M17 6V3h-3" />
		<path d="M3 14v3h3" />
		<path d="M17 14v3h-3" />
		<path d="M8 7l4 3-4 3" />
	</symbol>
	<symbol id="icon-spinner" viewBox="0 0 20 20" fill="none" stroke="currentColor" stroke-width="1.5" stroke-linecap="round">
		<circle cx="10" cy="10" r="6.5" stroke-dasharray="28 12" />
	</symbol>
</svg>
